<?xml version="1.0" encoding="UTF-8"?>
<svg xmlns="http://www.w3.org/2000/svg" viewBox="0 0 400 320" fill="none" aria-hidden="true">
  <defs>
    <linearGradient id="rundio-bg" x1="0%" y1="100%" x2="100%" y2="0%">
      <stop offset="0%" stop-color="#ea580c" stop-opacity="0.35"/>
      <stop offset="45%" stop-color="#fbbf24" stop-opacity="0.2"/>
      <stop offset="100%" stop-color="#22d3ee" stop-opacity="0.35"/>
    </linearGradient>
    <linearGradient id="rundio-body" x1="0%" y1="0%" x2="100%" y2="100%">
      <stop offset="0%" stop-color="#fb923c"/>
      <stop offset="100%" stop-color="#f97316"/>
    </linearGradient>
    <linearGradient id="rundio-accent" x1="0%" y1="0%" x2="100%" y2="0%">
      <stop offset="0%" stop-color="#67e8f9"/>
      <stop offset="100%" stop-color="#22d3ee"/>
    </linearGradient>
  </defs>
  <ellipse cx="200" cy="200" rx="160" ry="120" fill="url(#rundio-bg)"/>
  <path stroke="url(#rundio-accent)" stroke-width="4" stroke-linecap="round" opacity="0.7" d="M48 168h56M32 188h72M56 208h48"/>
  <path fill="#78716c" d="M188 214l-28 52-18-10 32-48z"/>
  <ellipse cx="210" cy="168" rx="36" ry="44" fill="url(#rundio-body)" transform="rotate(-12 210 168)"/>
  <path fill="#57534e" d="M228 198l52 36-12 16-56-40z"/>
  <path fill="#fb923c" d="M232 148l48-8 4 20-52 4z"/>
  <path fill="#fdba74" d="M168 156l-40 28 12 16 36-28z"/>
  <circle cx="248" cy="112" r="28" fill="#fecdd3"/>
  <path stroke="url(#rundio-accent)" stroke-width="5" stroke-linecap="round" d="M226 108c0-18 14-32 32-32s32 14 32 32"/>
  <rect x="218" y="96" width="14" height="28" rx="4" fill="#22d3ee" opacity="0.9"/>
  <rect x="276" y="96" width="14" height="28" rx="4" fill="#22d3ee" opacity="0.9"/>
</svg>
